<svg id="Capa_1" enable-background="new 0 0 512 512" height="512" viewBox="0 0 512 512" width="512" xmlns="http://www.w3.org/2000/svg" xmlns:xlink="http://www.w3.org/1999/xlink"><linearGradient id="SVGID_1_" gradientUnits="userSpaceOnUse" x1="256" x2="256" y1="481" y2="46"><stop offset="0" stop-color="#00b59c"/><stop offset="1" stop-color="#9cffac"/></linearGradient><linearGradient id="SVGID_2_" gradientUnits="userSpaceOnUse" x1="314" x2="314" y1="241" y2="31"><stop offset="0" stop-color="#c3ffe8"/><stop offset=".9973" stop-color="#f0fff4"/></linearGradient><g><path d="m437 391h-33v-71.715c0-6.836-4.622-12.808-11.24-14.521-30.98-8.022-60.518-20.22-87.791-36.256-6.212-3.651-14.145-2.371-18.891 3.053l-22.896 26.166c-5.029 5.748-13.507 7.006-19.298 2.862-36.542-26.146-68.836-57.932-94.982-94.474-4.144-5.792-2.887-14.268 2.862-19.297l26.257-22.974c5.419-4.742 6.704-12.665 3.062-18.876-15.985-27.26-28.148-56.774-36.151-87.723-1.712-6.62-7.684-11.245-14.522-11.245h-85.259c-29.83 0-51.469 28.515-43.477 57.364 22.686 81.875 66.596 157.064 126.983 217.44 60.386 60.375 136.096 104.276 217.983 126.958 23.251 6.44 46.023-6.351 54.159-26.762h36.201c24.813 0 45 20.187 45 45 0 8.284 6.716 15 15 15s15-6.716 15-15c0-41.355-33.645-75-75-75z" fill="url(#SVGID_1_)"/><g><g><path d="m224 31c-8.284 0-15 6.716-15 15s6.716 15 15 15c90.981 0 165 74.019 165 165 0 8.284 6.716 15 15 15s15-6.716 15-15c0-107.523-87.477-195-195-195zm0 60c-8.284 0-15 6.716-15 15s6.716 15 15 15c57.897 0 105 47.103 105 105 0 8.284 6.716 15 15 15s15-6.716 15-15c0-74.439-60.561-135-135-135zm0 60c-8.284 0-15 6.716-15 15s6.716 15 15 15c24.813 0 45 20.187 45 45 0 8.284 6.716 15 15 15s15-6.716 15-15c0-41.355-33.645-75-75-75z" fill="url(#SVGID_2_)"/></g></g></g></svg>